<?xml version="1.0" encoding="utf-8"?>
<!-- Generator: Adobe Illustrator 12.0.0, SVG Export Plug-In . SVG Version: 6.00 Build 51448)  -->
<!DOCTYPE svg PUBLIC "-//W3C//DTD SVG 1.1//EN" "http://www.w3.org/Graphics/SVG/1.1/DTD/svg11.dtd" [
	<!ENTITY ns_svg "http://www.w3.org/2000/svg">
	<!ENTITY ns_xlink "http://www.w3.org/1999/xlink">
]>
<svg  version="1.1" id="Layer_1" xmlns="&ns_svg;" xmlns:xlink="&ns_xlink;" width="210.02" height="125.01"
	 viewBox="0 0 210.02 125.01" overflow="visible" enable-background="new 0 0 210.02 125.01" xml:space="preserve">
<g>
	<path fill="#00A895" d="M105.01,0C47.016,0,0,25.918,0,57.89c0,16.076,23.294,34.836,23.294,34.836
		c4.284,3.45,4.961,9.773,1.505,14.052l-10.218,12.65c-3.456,4.278-1.941,6.596,3.365,5.15l38.076-10.373
		c5.307-1.446,14.089-1.896,19.515-0.998c0,0,15.561,2.572,29.473,2.572c57.995,0,105.01-25.918,105.01-57.89S163.005,0,105.01,0z"
		/>
</g>
<g>
	<path fill="#201D20" d="M31.809,27.571H40.1V52.21h7.236V27.571h8.291v57.48h-8.291V60.413H40.1v24.639h-8.291V27.571z"/>
	<path fill="#201D20" d="M63.244,27.571h21.504v8.174H71.535V52.21h11.367v8.203H71.535v16.465h13.213v8.174H63.244V27.571z"/>
	<path fill="#201D20" d="M90.9,85.052v-57.48h8.291v49.307h13.213v8.174H90.9z"/>
	<path fill="#201D20" d="M117.385,85.052v-57.48h8.291v49.307h13.213v8.174H117.385z"/>
	<path fill="#201D20" d="M167.102,73.89c0,8.047-3.975,12.08-11.924,12.1c-7.93,0-11.895-4.033-11.895-12.1V38.733
		c0-8.047,3.965-12.07,11.895-12.07c7.949,0,11.924,4.023,11.924,12.07V73.89z M158.811,38.733c0-2.578-1.201-3.877-3.604-3.896
		h-0.059c-2.383,0-3.574,1.299-3.574,3.896V73.89c0,2.598,1.201,3.896,3.604,3.896c2.422,0,3.633-1.299,3.633-3.896V38.733z"/>
	<path fill="#201D20" d="M183.361,27.571l-0.615,41.953h-8.291l-0.615-41.953H183.361z M173.84,75.53h9.521v9.521h-9.521V75.53z"/>
</g>
</svg>
