<?xml version="1.0" encoding="utf-8"?>
<!-- Generator: Adobe Illustrator 12.0.0, SVG Export Plug-In . SVG Version: 6.00 Build 51448)  -->
<!DOCTYPE svg PUBLIC "-//W3C//DTD SVG 1.1//EN" "http://www.w3.org/Graphics/SVG/1.1/DTD/svg11.dtd" [
	<!ENTITY ns_svg "http://www.w3.org/2000/svg">
	<!ENTITY ns_xlink "http://www.w3.org/1999/xlink">
]>
<svg  version="1.1" id="Layer_1" xmlns="&ns_svg;" xmlns:xlink="&ns_xlink;" width="329" height="439" viewBox="0 0 329 439"
	 overflow="visible" enable-background="new 0 0 329 439" xml:space="preserve">
<rect fill="#201D20" width="329" height="439"/>
<g>
	<path fill="#00A895" d="M221.891,132.941c-16.432-41.608-63.482-62.018-105.09-45.586c-39.153,15.462-59.525,58.032-48.104,97.671
		c30.72-13.284,57.841-27.95,78.193-41.959c-0.206-0.404-0.397-0.819-0.567-1.249c-2.85-7.215,0.689-15.375,7.904-18.224
		c5.033-1.987,10.519-0.86,14.348,2.447c7.449-6.898,12.661-13.379,15.162-19.146c1.65-3.806,1.951-7.094,0.894-9.772l4.65-1.837
		c1.563,3.957,1.24,8.532-0.957,13.599c-2.739,6.315-8.485,13.411-16.683,20.934c0.299,0.538,0.578,1.092,0.811,1.68
		c2.85,7.216-0.689,15.375-7.904,18.225c-5.198,2.053-10.875,0.777-14.714-2.786c-20.842,14.414-48.436,29.391-79.589,42.857
		c0.314,0.884,0.622,1.77,0.97,2.649c16.432,41.608,63.481,62.018,105.09,45.586S238.322,174.55,221.891,132.941z"/>
	<path fill="#201D20" d="M154.227,123.595c-7.215,2.849-10.754,11.009-7.904,18.224c0.17,0.43,0.361,0.845,0.567,1.249
		c8.481-5.839,15.785-11.563,21.685-17.025C164.745,122.734,159.26,121.607,154.227,123.595z"/>
	<path fill="#201D20" d="M164.547,149.725c7.215-2.85,10.754-11.009,7.904-18.225c-0.232-0.588-0.512-1.142-0.811-1.68
		c-6.017,5.521-13.355,11.273-21.808,17.118C153.672,150.502,159.349,151.777,164.547,149.725z"/>
	<path fill="#201D20" d="M49.857,192.815l1.836,4.65c6.303-2.489,12.493-5.052,18.551-7.67c-0.563-1.584-1.088-3.174-1.548-4.77
		C62.552,187.684,56.264,190.285,49.857,192.815z"/>
	<path fill="#201D20" d="M171.641,129.82c8.197-7.523,13.943-14.619,16.683-20.934c2.197-5.066,2.52-9.642,0.957-13.599l-4.65,1.837
		c1.058,2.678,0.757,5.966-0.894,9.772c-2.501,5.766-7.713,12.248-15.162,19.146C169.787,127.09,170.828,128.361,171.641,129.82z"/>
</g>
<g>
	<path fill="#00A895" d="M181.246,252.191l-22.863,10.117l-3.231-7.302c-2.696,1.294-5.442,2.582-8.235,3.86l3.809,8.603
		l-22.863,10.117l-3.908-8.831c-5.035,2.038-10.176,4.039-15.408,5.993c-1.3,2.692-2.734,5.367-3.449,7.843
		c-1.148,2.769-2.244,5.501-3.06,8.019c-1.63,5.036-2.14,9.215,0.287,11.14c7.059,5.596,27.903-18.902,37.456-17.499
		c9.553,1.402,22.475,30.86,30.844,27.53c8.635-3.436-2.207-33.903,3.564-41.186c5.598-7.058,37.834-3.373,39.237-12.926
		c1.099-7.48-18.241-12.623-28.286-18.521c-2.499,1.468-5.07,2.936-7.719,4.4L181.246,252.191z"/>
	<path fill="#00A895" d="M119.768,259.299l22.861-10.117l2.285,5.16c2.795-1.275,5.543-2.559,8.24-3.848l-2.865-6.475l22.861-10.116
		l2.283,5.157c1.86-1.029,3.686-2.058,5.469-3.086c-0.604-0.642-1.073-1.295-1.341-1.968c-3.435-8.635,15.71-34.698,8.429-40.471
		c-7.059-5.596-27.904,18.902-37.456,17.5c-9.553-1.402-22.475-30.86-30.844-27.53c-4.317,1.718-3.766,10.193-2.854,19.149
		c0.303,2.985,0.646,6.024,0.861,8.885C119,235,80,235,80,252c-1,10,23-3,30,10c1.327,1.99,1.439,4.203,0.933,6.51
		c3.72-1.418,7.391-2.855,11.003-4.312L119.768,259.299z"/>
	<path fill="#201D20" d="M180.902,235.975c-1.783,1.028-3.608,2.057-5.469,3.086l1.986,4.488c2.648-1.465,5.22-2.933,7.719-4.4
		C183.387,238.119,181.932,237.066,180.902,235.975z"/>
	<path fill="#201D20" d="M144.914,254.342l2.002,4.525c2.793-1.278,5.539-2.566,8.235-3.86l-1.997-4.513
		C150.457,251.783,147.709,253.066,144.914,254.342z"/>
</g>
<path fill="#201D20" d="M115.896,207.033C113,201,112,194,117,191c12-8,25-6,38-6c12,1,12,16,7,25c-9,15-33,16-42.687,2.424
	C117.945,210.775,116.788,208.965,115.896,207.033z"/>
<path fill="#00A895" d="M129.705,216.943C126,210,131,203,137,200c7-3,16-3,22,2c4,4,3,10,1,13c-6,9-20,13-28.705,5.952
	C130.643,219.825,130.117,218.479,129.705,216.943z"/>
<circle fill="#201D20" cx="122.408" cy="142.392" r="7.25"/>
<g>
	<path fill="#201D20" d="M205.607,13.504c-0.127-0.058-0.254-0.115-0.381-0.172c0.09,0.098,0.181,0.195,0.27,0.294
		C205.533,13.584,205.571,13.545,205.607,13.504z"/>
	<path fill="#201D20" d="M242.186,107.179c-7.494,8.414-47.428,17.115-51.785,17.539c-23.447,2.284-52.285,6.592-75.341,1.99
		c-8.659-1.728-50.562-9.883-56.626-20.375c-7.639,12.828,46.634,23.381,56.626,25.375c23.056,4.602,51.894,0.294,75.341-1.99
		C195.639,129.208,252.311,116.734,242.186,107.179z"/>
	<path fill="#FFFFFF" d="M190.596,53.986c-0.247-1.508-0.125-2.625,0.26-3.434c-18.715-2.939-34.471-14.861-42.702-31.186
		c-12.429,6.297-23.771,14.953-32.354,24.227c-1.939,2.1-3.569,4.44-4.996,6.928C146.345,58.062,176.803,59.609,190.596,53.986z"/>
	<path fill="#FFFFFF" d="M115.06,126.708c23.056,4.602,51.894,0.294,75.341-1.99c4.357-0.424,44.291-9.125,51.785-17.539
		c-2.283-2.154-7.949-4.161-18.38-5.848c-6.784-1.08-11.576-3.191-15.104-6.042c-22.772,6.295-65.458,3.102-114.342-8.266
		c-2.987,3.737-6.824,6.596-12.145,8.01c-14.501,3.854-21.619,7.668-23.782,11.301C64.498,116.825,106.4,124.98,115.06,126.708z"/>
	<path fill="#FFFFFF" d="M204.793,91.197c-6.365-8.516-6.898-20.806-12.582-32.488c-15.23,5.959-46.776,4.427-83.772-3.563
		c-4.191,9.137-6.58,19.463-11.118,27.455C143.02,93.13,182.754,96.39,204.793,91.197z"/>
	<path fill="#FFFFFF" d="M206.121,49.771C225.5,75.5,221.5,42.5,221.5,42.5s-4.592-13.88-12.771-24.906
		c-5.848,6.975-10.117,16.214-12.025,26.308C200.168,44.71,204.17,47.18,206.121,49.771z"/>
	<path fill="#FFFFFF" d="M187.546,9.312c-11.544-0.249-23.566,2.803-34.882,7.9c7.43,14.665,21.517,25.416,38.277,28.279
		c0.146-0.297,0.324-0.556,0.535-0.777c1.969-12.138,6.926-23.001,14.02-31.088c-0.089-0.099-0.18-0.196-0.27-0.294
		C199.168,10.601,192.959,9.111,187.546,9.312z"/>
	<path fill="#201D20" d="M204.793,91.197C182.754,96.39,143.02,93.13,97.32,82.602c-0.893,1.573-1.869,3.057-2.96,4.421
		c48.884,11.368,91.569,14.562,114.342,8.266C207.179,94.058,205.902,92.682,204.793,91.197z"/>
	<path fill="#201D20" d="M192.211,58.709c-0.221-0.456-0.443-0.912-0.682-1.365c-0.474-1.285-0.776-2.398-0.934-3.357
		c-13.793,5.623-44.251,4.076-79.793-3.464c-0.855,1.494-1.638,3.041-2.364,4.625C145.435,63.136,176.98,64.668,192.211,58.709z"/>
	<path fill="#201D20" d="M190.922,50.404c-0.025,0.046-0.043,0.101-0.066,0.149c0.037,0.006,0.074,0.014,0.111,0.02
		C190.951,50.516,190.936,50.459,190.922,50.404z"/>
	<path fill="#201D20" d="M190.855,50.553c0.023-0.048,0.041-0.103,0.066-0.149c-0.584-2.237-0.512-3.835,0.02-4.914
		c-16.761-2.863-30.848-13.614-38.277-28.279c-1.517,0.684-3.021,1.402-4.511,2.156C156.385,35.692,172.141,47.613,190.855,50.553z"
		/>
	<path fill="#201D20" d="M196.703,43.901c1.908-10.094,6.178-19.333,12.025-26.308c-1.022-1.378-2.1-2.712-3.232-3.968
		c-7.094,8.086-12.051,18.95-14.02,31.088C192.59,43.546,194.538,43.396,196.703,43.901z"/>
</g>
<g>
	<path fill="none" d="M217.5,302.5c-13.416-17.248-18.672-67.164,5-79c22.914-9.82,50.063,6.76,34,32"/>
	<path fill="#201D20" d="M222.053,298.639c-5.859-7.762-8.109-18.201-9.363-27.638c-1.463-11.021-0.879-22.888,3.878-33.077
		c4.503-9.647,15.751-13.052,25.693-10.701c4.675,1.105,9.284,3.617,11.683,7.918c3.083,5.527,0.697,11.967-2.332,16.936
		c-3.992,6.545,5.763,13.432,9.777,6.848c4.357-7.146,7.141-15.152,5.281-23.561c-1.676-7.575-7.278-13.498-14.039-16.938
		c-13.887-7.063-32.029-4.233-42.354,7.463c-9.593,10.869-10.658,27.654-9.893,41.373c0.75,13.453,4.325,28.189,12.563,39.1
		C217.588,312.507,226.681,304.769,222.053,298.639L222.053,298.639z"/>
</g>
<g>
	<path fill="none" d="M221.5,302.5c-13.416-17.248-18.672-67.164,5-79c22.914-9.82,50.063,6.76,34,32"/>
	<path fill="#FFFFFF" d="M226.053,298.639c-5.859-7.762-8.109-18.201-9.363-27.638c-1.463-11.021-0.879-22.888,3.878-33.077
		c4.503-9.647,15.751-13.052,25.693-10.701c4.675,1.105,9.284,3.617,11.683,7.918c3.083,5.527,0.697,11.967-2.332,16.936
		c-3.992,6.545,5.763,13.432,9.777,6.848c4.357-7.146,7.141-15.152,5.281-23.561c-1.676-7.575-7.278-13.498-14.039-16.938
		c-13.887-7.063-32.029-4.233-42.354,7.463c-9.593,10.869-10.658,27.654-9.893,41.373c0.75,13.453,4.325,28.189,12.563,39.1
		C221.588,312.507,230.681,304.769,226.053,298.639L226.053,298.639z"/>
</g>
<path fill="none" stroke="#201D20" stroke-width="4" d="M227.5,269.5c0,3.316-12.523,6-28,6"/>
<path fill="none" stroke="#201D20" stroke-width="4" d="M227.5,242.5c0-7.738-11.182-14-25-14"/>
<path fill="none" stroke="#201D20" stroke-width="4" d="M251.5,235.5c0-11.055,7.156-20,16-20"/>
<path fill="none" stroke="#201D20" stroke-width="4" d="M209.5,313.5c0-10.502,12.523-19,28-19"/>
<path fill="none" stroke="#201D20" stroke-width="4" d="M253.5,243.5c0,4.975,16.549,9,37,9"/>
<g>
	<path fill="#FFFFFF" d="M46.367,340.414c-3.02-4.317-8.016-7.175-13.621-7.175h-19.78c-1.054,0-1.847,0.79-1.847,1.846v88.62
		c0,1.052,0.793,1.845,1.847,1.845h11.736c1.056,0,1.848-0.793,1.848-1.845v-35.74h6.196c4.305,0,8.244-1.696,11.213-4.432v-34.602
		C43.959,345.826,44.852,342.914,46.367,340.414z M33.936,370.689c0,1.716-1.451,3.167-3.167,3.167H26.55V347.35h4.219
		c1.716,0,3.167,1.45,3.167,3.164V370.689z"/>
	<path fill="#FFFFFF" d="M109.816,410.121H93.462v-75.036c0-1.056-0.788-1.846-1.845-1.846H79.881c-1.055,0-1.846,0.79-1.846,1.846
		v2.932c2.578,2.933,4.164,6.753,4.164,10.915v60.926c0,4.16-1.586,7.981-4.164,10.914v2.934c0,1.052,0.791,1.845,1.846,1.845
		h11.736h0.133c0.131,0,0.131,0,0.262,0h17.805c1.055,0,1.845-0.793,1.845-1.845v-11.737
		C111.661,410.911,110.871,410.121,109.816,410.121z"/>
	<path fill="#FFFFFF" d="M151.938,333.239H137.96c-1.055,0-1.978,0.79-2.111,1.846l-5.274,33.232h-0.527l-5.275-33.232
		c-0.131-1.056-1.052-1.846-2.105-1.846h-13.982c-1.055,0-1.582,0.923-1.318,1.846l15.166,54.596v34.024
		c0,1.052,0.791,1.845,1.846,1.845h11.867c1.057,0,1.848-0.793,1.848-1.845v-34.024l15.165-54.596
		C153.521,334.162,152.994,333.239,151.938,333.239z"/>
	<path fill="#00A895" d="M190.436,348.932c0-2.601,0.633-5.062,1.721-7.267c-2.879-5.009-8.279-8.426-14.409-8.426h-19.782
		c-1.055,0-1.845,0.79-1.845,1.846v88.62c0,1.052,0.79,1.845,1.845,1.845h19.782c6.13,0,11.53-3.419,14.409-8.427
		c-1.088-2.204-1.721-4.667-1.721-7.266V348.932z M178.938,408.273c0,1.717-1.455,3.166-3.17,3.166h-4.221v-64.09h4.221
		c1.715,0,3.17,1.45,3.17,3.164V408.273z"/>
	<path fill="#00A895" d="M254.271,386.119c5.405-2.768,9.099-8.307,9.099-14.77v-21.494c0-9.102-7.516-16.616-16.615-16.616h-19.782
		c-1.054,0-1.845,0.79-1.845,1.846v3.667c2.213,2.824,3.553,6.357,3.553,10.18v60.926c0,3.821-1.34,7.355-3.553,10.18v3.668
		c0,1.052,0.791,1.845,1.845,1.845h11.735c0.793,0,1.584-0.528,1.85-1.319v-32.836l9.625,32.311c0.262,1.052,1.45,1.845,2.506,1.845
		h11.999c1.056,0,1.585-0.793,1.32-1.845L254.271,386.119z M247.939,370.689c0,1.716-1.451,3.167-3.166,3.167h-4.217V347.35h4.217
		c1.715,0,3.166,1.45,3.166,3.164V370.689z"/>
	<path fill="#00A895" d="M319.903,333.239h-11.208c-1.056,0-1.977,0.923-2.242,1.846l-10.42,47.211l-10.416-47.211
		c-0.264-0.923-1.189-1.846-2.242-1.846h-11.209c-1.057,0-1.846,0.79-1.846,1.846v88.62c0,1.052,0.789,1.845,1.846,1.845h12.66
		c1.055,0,1.844-0.793,1.844-1.845v-41.674l8.705,34.025c0.266,0.921,1.053,0.921,1.32,0l8.702-34.025v41.674
		c0,1.052,0.79,1.845,1.847,1.845h12.659c1.056,0,1.847-0.793,1.847-1.845v-88.62C321.75,334.029,320.959,333.239,319.903,333.239z"
		/>
	<path fill="#00A895" d="M209.284,348.145c-3.193,0-4.79,1.917-4.79,5.744v51.125c0,3.948,1.597,5.922,4.79,5.922
		c3.256,0,4.884-1.974,4.884-5.922v-51.125C214.168,350.062,212.54,348.145,209.284,348.145z"/>
	<path fill="#FFFFFF" d="M62.805,348.145c-3.193,0-4.791,1.917-4.791,5.744v51.125c0,3.948,1.598,5.922,4.791,5.922
		c3.254,0,4.885-1.974,4.885-5.922v-51.125C67.689,350.062,66.059,348.145,62.805,348.145z"/>
</g>
</svg>
