<?xml version="1.0" encoding="UTF-8" standalone="no"?>
<!DOCTYPE svg PUBLIC "-//W3C//DTD SVG 1.1//EN" "http://www.w3.org/Graphics/SVG/1.1/DTD/svg11.dtd">
<svg width="100%" height="100%" viewBox="0 0 960 540" version="1.1" xmlns="http://www.w3.org/2000/svg" xmlns:xlink="http://www.w3.org/1999/xlink" xml:space="preserve" xmlns:serif="http://www.serif.com/" style="fill-rule:evenodd;clip-rule:evenodd;stroke-linecap:round;stroke-linejoin:round;stroke-miterlimit:1.5;">
    <g id="Layer4">
        <rect x="0" y="0" width="960" height="540" style="fill:rgb(32,29,32);"/>
        <path d="M0,502L41.543,508L58,520L104.011,526.309L125,501L170,507L241,491L285.929,494.412L304.37,494.572L320,497L369,501L506,493L533,501L576,495L602,484L730,475.431L843,484L916,495L960,495" style="fill:none;stroke:rgb(0,171,151);stroke-width:4.25px;"/>
    </g>
    <g transform="matrix(-1.06145,-0.0185326,-0.016478,0.943772,1180.89,-2.75476)">
        <path d="M468.166,469.013C467.943,476.345 469.14,486.332 468.578,486.122C434.475,472.651 276.147,387.502 338.089,235.032C338.118,234.959 338.679,204.165 375.534,189.249C383.887,185.869 392.417,166.504 393.882,182.165C394.556,189.369 378.498,218.28 372.789,223.484C351.265,243.103 307.95,319.453 403,385.479C442.042,412.599 498,433.122 498,433.122L502.929,459.501C503.131,460.58 503.242,461.673 503.261,462.77C503.365,468.763 506.729,465.349 506.904,475.392C506.924,476.567 491.627,491.836 479.17,472.835C475.896,471.758 472.2,470.487 468.166,469.013Z" style="fill:rgb(0,171,151);"/>
    </g>
    <g transform="matrix(-0.341148,-1.39183,1.35059,-0.353134,283.687,1621.34)">
        <g transform="matrix(-0.709825,0.303582,0.261853,0.612255,984.526,43.5805)">
            <path d="M468.166,469.013C467.943,476.345 469.14,486.332 468.578,486.122C434.475,472.651 276.147,387.502 338.089,235.032C338.118,234.959 338.679,204.165 375.534,189.249C383.887,185.869 392.417,166.504 393.882,182.165C394.556,189.369 378.498,218.28 372.789,223.484C351.265,243.103 307.95,319.453 403,385.479C442.042,412.599 498,433.122 498,433.122L502.929,459.501C503.131,460.58 503.242,461.673 503.261,462.77C503.365,468.763 506.729,465.349 506.904,475.392C506.924,476.567 491.627,491.836 479.17,472.835C475.896,471.758 472.2,470.487 468.166,469.013Z" style="fill:rgb(0,171,151);stroke:rgb(37,33,37);stroke-width:5.39px;"/>
        </g>
        <g transform="matrix(-0.709825,0.303582,0.261853,0.612255,984.526,43.5805)">
            <path d="M468.166,469.013C467.943,476.345 469.14,486.332 468.578,486.122C434.475,472.651 276.147,387.502 338.089,235.032C338.118,234.959 338.679,204.165 375.534,189.249C383.887,185.869 392.417,166.504 393.882,182.165C394.556,189.369 378.498,218.28 372.789,223.484C351.265,243.103 307.95,319.453 403,385.479C442.042,412.599 498,433.122 498,433.122L502.929,459.501C503.131,460.58 503.242,461.673 503.261,462.77C503.365,468.763 506.729,465.349 506.904,475.392C506.924,476.567 491.627,491.836 479.17,472.835C475.896,471.758 472.2,470.487 468.166,469.013Z" style="fill:rgb(0,171,151);"/>
        </g>
    </g>
    <g transform="matrix(1.25904,-0.615796,0.596055,1.29718,-367.94,335.174)">
        <g transform="matrix(-0.709825,0.303582,0.261853,0.612255,984.526,43.5805)">
            <path d="M468.166,469.013C467.943,476.345 469.14,486.332 468.578,486.122C434.475,472.651 276.147,387.502 338.089,235.032C338.118,234.959 338.679,204.165 375.534,189.249C383.887,185.869 392.417,166.504 393.882,182.165C394.556,189.369 378.498,218.28 372.789,223.484C351.265,243.103 307.95,319.453 403,385.479C442.042,412.599 498,433.122 498,433.122L502.929,459.501C503.131,460.58 503.242,461.673 503.261,462.77C503.365,468.763 506.729,465.349 506.904,475.392C506.924,476.567 491.627,491.836 479.17,472.835C475.896,471.758 472.2,470.487 468.166,469.013Z" style="fill:rgb(0,171,151);stroke:rgb(37,33,37);stroke-width:5.23px;"/>
        </g>
        <g transform="matrix(-0.709825,0.303582,0.261853,0.612255,984.526,43.5805)">
            <path d="M468.166,469.013C467.943,476.345 469.14,486.332 468.578,486.122C434.475,472.651 276.147,387.502 338.089,235.032C338.118,234.959 338.679,204.165 375.534,189.249C383.887,185.869 392.417,166.504 393.882,182.165C394.556,189.369 378.498,218.28 372.789,223.484C351.265,243.103 307.95,319.453 403,385.479C442.042,412.599 498,433.122 498,433.122L502.929,459.501C503.131,460.58 503.242,461.673 503.261,462.77C503.365,468.763 506.729,465.349 506.904,475.392C506.924,476.567 491.627,491.836 479.17,472.835C475.896,471.758 472.2,470.487 468.166,469.013Z" style="fill:rgb(0,171,151);"/>
        </g>
    </g>
    <g transform="matrix(1.39278,0.0243175,-0.0250672,1.43572,-234.957,-225.984)">
        <g id="Layer3">
            <g>
                <path d="M658.969,472.497C658.41,473.613 657.115,474.19 655.878,473.873C633.236,467.701 438.123,409.61 497.505,254.785C498.428,252.392 499.054,249.901 499.371,247.364C500.959,234.995 508.711,195.343 542.918,196.038C543.83,196.058 544.614,195.415 544.744,194.54C544.875,193.665 544.311,192.832 543.431,192.601C542.067,192.277 540.096,193.413 537.356,198.362C534.304,203.876 566.148,191.591 538,210.396C508.64,230.01 493.57,325.067 566,382.358C603.597,412.096 661,430 661,430C661,430 663.936,445.713 665.409,453.597C665.944,456.458 665.526,459.41 664.216,462.025C662.548,465.353 660.252,469.935 658.969,472.497Z" style="fill:rgb(0,171,151);stroke:rgb(37,33,37);stroke-width:3.83px;"/>
                <path d="M658.969,472.497C658.41,473.613 657.115,474.19 655.878,473.873C633.236,467.701 438.123,409.61 497.505,254.785C498.428,252.392 499.054,249.901 499.371,247.364C500.959,234.995 508.711,195.343 542.918,196.038C543.83,196.058 544.614,195.415 544.744,194.54C544.875,193.665 544.311,192.832 543.431,192.601C542.067,192.277 540.096,193.413 537.356,198.362C534.304,203.876 564.72,189.612 538,210.396C507.64,234.01 493.57,325.067 566,382.358C603.597,412.096 661,430 661,430C661,430 663.936,445.713 665.409,453.597C665.944,456.458 665.526,459.41 664.216,462.025C662.548,465.353 660.252,469.935 658.969,472.497Z" style="fill:rgb(0,171,151);"/>
                <g transform="matrix(1,0,0,1,159,0)">
                    <path d="M503.837,445.185L505.929,456.38C506.131,457.458 506.242,458.551 506.261,459.648C506.365,465.641 509.729,462.228 509.904,472.271C509.926,473.504 493.06,490.276 480.327,466.604C466.465,440.83 472.733,483.433 471.578,483C437.475,469.53 272.586,405.369 334.528,252.899C334.557,252.826 334.475,241.966 334.528,241.907C349.195,225.652 341.679,201.044 378.534,186.128C386.887,182.747 395.417,163.382 396.882,179.043C397.556,186.248 382.19,216.385 375.789,220.362C368.391,224.96 351.195,270.697 349,279C333.366,338.13 388.597,385 388.597,385C402.89,403.014 490,443 490,443L503.837,445.185Z" style="fill:white;stroke:rgb(37,33,37);stroke-width:3.83px;"/>
                </g>
                <g transform="matrix(1,0,0,1,160,0)">
                    <path d="M503.837,445.185L505.929,456.38C506.131,457.458 506.242,458.551 506.261,459.648C506.365,465.641 509.729,462.228 509.904,472.271C509.926,473.504 493.06,490.276 480.327,466.604C466.465,440.83 472.733,483.433 471.578,483C437.475,469.53 272.586,405.369 334.528,252.899C334.557,252.826 334.475,241.966 334.528,241.907C349.195,225.652 341.679,201.044 378.534,186.128C386.887,182.747 395.417,163.382 396.882,179.043C397.556,186.248 382.19,216.385 375.789,220.362C368.391,224.96 361.192,247.824 353,282C338.749,341.458 388.597,385 388.597,385C402.89,403.014 490,443 490,443L503.837,445.185Z" style="fill:white;"/>
                </g>
                <path d="M664,445L650,443C650,443 562.89,403.014 548.597,385C548.597,385 492.567,342.052 516.006,264.864C524.133,238.103 541.811,207.226 574.688,172.597" style="fill:none;stroke:rgb(37,33,37);stroke-width:2.31px;"/>
                <g>
                    <g transform="matrix(0.424984,0.905201,-1.17416,0.551257,1031.48,-95.2569)">
                        <path d="M191.381,516.644C197.976,516.535 201.79,520.212 202.575,522.481C204.811,528.944 192.423,525.464 188.5,528C181.249,532.688 168.871,525.11 175.132,520.349C180.484,516.279 183.38,516.777 191.381,516.644Z" style="fill:rgb(37,33,37);stroke:rgb(37,33,37);stroke-width:6.96px;"/>
                    </g>
                    <g transform="matrix(0.424984,0.905201,-0.653839,0.306972,756.028,34.0673)">
                        <ellipse cx="188.5" cy="517.5" rx="14.5" ry="10.5" style="fill:rgb(0,171,151);stroke:rgb(0,171,151);stroke-width:3.05px;"/>
                    </g>
                    <g transform="matrix(0.28895,0.615453,-0.444551,0.208713,670.831,139.853)">
                        <ellipse cx="188.5" cy="517.5" rx="14.5" ry="10.5" style="fill:rgb(37,33,37);"/>
                    </g>
                </g>
                <g transform="matrix(0.909023,0.416746,-0.416746,0.909023,186.115,-230.182)">
                    <g transform="matrix(0.424984,0.905201,-1.17416,0.551257,1031.48,-95.2569)">
                        <path d="M191.381,516.644C197.976,516.535 201.79,520.212 202.575,522.481C204.811,528.944 192.423,525.464 188.5,528C181.249,532.688 168.871,525.11 175.132,520.349C180.484,516.279 183.38,516.777 191.381,516.644Z" style="fill:rgb(37,33,37);stroke:rgb(37,33,37);stroke-width:7.05px;"/>
                    </g>
                    <g transform="matrix(0.424984,0.905201,-0.653839,0.306972,756.028,34.0673)">
                        <ellipse cx="188.5" cy="517.5" rx="14.5" ry="10.5" style="fill:rgb(0,171,151);stroke:rgb(0,171,151);stroke-width:3.07px;"/>
                    </g>
                    <g transform="matrix(0.28895,0.615453,-0.444551,0.208713,670.831,139.853)">
                        <ellipse cx="188.5" cy="517.5" rx="14.5" ry="10.5" style="fill:rgb(37,33,37);"/>
                    </g>
                </g>
                <g transform="matrix(0.557539,0.6559,-0.6559,0.557539,456.076,-275.806)">
                    <g transform="matrix(0.424984,0.905201,-1.17416,0.551257,1031.48,-95.2569)">
                        <path d="M191.381,516.644C197.976,516.535 201.79,520.212 202.575,522.481C204.811,528.944 192.423,525.464 188.5,528C181.249,532.688 168.871,525.11 175.132,520.349C180.484,516.279 183.38,516.777 191.381,516.644Z" style="fill:rgb(37,33,37);stroke:rgb(37,33,37);stroke-width:8.27px;"/>
                    </g>
                    <g transform="matrix(0.424984,0.905201,-0.653839,0.306972,756.028,34.0673)">
                        <ellipse cx="188.5" cy="517.5" rx="14.5" ry="10.5" style="fill:rgb(0,171,151);stroke:rgb(0,171,151);stroke-width:3.62px;"/>
                    </g>
                    <g transform="matrix(0.28895,0.615453,-0.444551,0.208713,670.831,139.853)">
                        <ellipse cx="188.5" cy="517.5" rx="14.5" ry="10.5" style="fill:rgb(37,33,37);"/>
                    </g>
                </g>
                <g transform="matrix(0.220923,0.775157,-0.628322,0.179075,631.77,-243.323)">
                    <g transform="matrix(0.424984,0.905201,-1.17416,0.551257,1031.48,-95.2569)">
                        <path d="M191.381,516.644C197.976,516.535 201.79,520.212 202.575,522.481C204.811,528.944 192.423,525.464 188.5,528C181.249,532.688 168.871,525.11 175.132,520.349C180.484,516.279 183.38,516.777 191.381,516.644Z" style="fill:rgb(37,33,37);stroke:rgb(37,33,37);stroke-width:10.34px;"/>
                    </g>
                    <g transform="matrix(0.424984,0.905201,-0.653839,0.306972,756.028,34.0673)">
                        <ellipse cx="188.5" cy="517.5" rx="14.5" ry="10.5" style="fill:rgb(0,171,151);stroke:rgb(0,171,151);stroke-width:4.76px;"/>
                    </g>
                    <g transform="matrix(0.28895,0.615453,-0.444551,0.208713,670.831,139.853)">
                        <ellipse cx="188.5" cy="517.5" rx="14.5" ry="10.5" style="fill:rgb(37,33,37);"/>
                    </g>
                </g>
                <g transform="matrix(1.17766,-0.310518,0.286058,1.08489,-155.795,172.567)">
                    <g transform="matrix(0.424984,0.905201,-1.17416,0.551257,1031.48,-95.2569)">
                        <path d="M191.381,516.644C197.976,516.535 201.79,520.212 202.575,522.481C204.811,528.944 192.423,525.464 188.5,528C181.249,532.688 168.871,525.11 175.132,520.349C180.484,516.279 183.38,516.777 191.381,516.644Z" style="fill:rgb(37,33,37);stroke:rgb(37,33,37);stroke-width:6.07px;"/>
                    </g>
                    <g transform="matrix(0.424984,0.905201,-0.653839,0.306972,756.028,34.0673)">
                        <ellipse cx="188.5" cy="517.5" rx="14.5" ry="10.5" style="fill:rgb(0,171,151);stroke:rgb(0,171,151);stroke-width:2.7px;"/>
                    </g>
                    <g transform="matrix(0.28895,0.615453,-0.444551,0.208713,670.831,139.853)">
                        <ellipse cx="188.5" cy="517.5" rx="14.5" ry="10.5" style="fill:rgb(37,33,37);"/>
                    </g>
                </g>
                <g transform="matrix(1.24886,-0.808588,0.744894,1.15049,-308.481,442.415)">
                    <g transform="matrix(0.424984,0.905201,-1.17416,0.551257,1031.48,-95.2569)">
                        <path d="M191.381,516.644C197.976,516.535 201.79,520.212 202.575,522.481C204.811,528.944 192.423,525.464 188.5,528C181.249,532.688 168.871,525.11 175.132,520.349C180.484,516.279 183.38,516.777 191.381,516.644Z" style="fill:rgb(37,33,37);stroke:rgb(37,33,37);stroke-width:4.96px;"/>
                    </g>
                    <g transform="matrix(0.424984,0.905201,-0.653839,0.306972,756.028,34.0673)">
                        <ellipse cx="188.5" cy="517.5" rx="14.5" ry="10.5" style="fill:rgb(0,171,151);stroke:rgb(0,171,151);stroke-width:2.22px;"/>
                    </g>
                    <g transform="matrix(0.28895,0.615453,-0.444551,0.208713,670.831,139.853)">
                        <ellipse cx="188.5" cy="517.5" rx="14.5" ry="10.5" style="fill:rgb(37,33,37);"/>
                    </g>
                </g>
            </g>
        </g>
    </g>
    <g id="Layer2">
        <path d="M254.491,480.759C254.378,477.824 253.057,475.067 250.841,473.139C248.625,471.211 245.711,470.285 242.789,470.579C242.791,470.597 242.791,470.597 242.791,470.597C237.22,471.174 232.451,474.847 230.471,480.086C226.443,490.519 216.125,506.131 189.576,516.937C182.441,519.886 174.643,520.859 167.003,519.753C154.279,517.947 136.012,513.731 143.663,505.138C144.655,503.924 146.024,503.075 147.553,502.726C153.345,501.094 173.788,493.485 176.664,462.954C177.797,451.467 182.39,440.596 189.836,431.777C199.284,420.491 215.328,409.108 242,407C282.74,403.779 304.775,422.042 310,469C314.926,513.274 305,498 305,498L255,494C255,494 254.744,487.338 254.491,480.759Z" style="fill:rgb(37,33,37);stroke:rgb(37,33,37);stroke-width:7.88px;"/>
        <path d="M254.491,480.759C254.378,477.824 253.057,475.067 250.841,473.139C248.625,471.211 245.711,470.285 242.789,470.579C242.791,470.597 242.791,470.597 242.791,470.597C237.22,471.174 232.451,474.847 230.471,480.086C226.443,490.519 216.125,506.131 189.576,516.937C182.441,519.886 174.643,520.859 167.003,519.753C154.279,517.947 136.012,513.731 143.663,505.138C144.655,503.924 146.024,503.075 147.553,502.726C153.383,501.083 174.059,493.384 176.719,462.343C177.418,454.497 179.735,446.881 183.524,439.976C191.525,425.365 208.631,405.717 243,403C283.74,399.779 323.392,413.619 333,463.419C339.112,495.098 327,496 327,496L255,494C255,494 254.744,487.338 254.491,480.759Z" style="fill:rgb(0,171,151);"/>
        <g transform="matrix(1,0,0,1,0,110)">
            <path d="M146.918,404.388C139.937,407.901 188.878,393.291 198.627,365.76C205.162,347.402 219.189,332.685 237.212,325.276C254.528,318.168 276.737,317.641 300.633,338.615C311.968,348.516 318.144,363.065 317.393,378.097C317.31,379.423 317.186,380.771 317,382.137L289.304,385.83L255,384C255,384 254.744,377.338 254.491,370.759C254.378,367.824 253.057,365.067 250.841,363.139C248.625,361.211 245.711,360.285 242.789,360.579C242.791,360.597 242.791,360.597 242.791,360.597C237.22,361.174 232.451,364.847 230.471,370.086C227.612,377.491 202.584,411.484 176.831,413.538L147.227,405.491C147.122,405.441 147.019,404.439 146.918,404.388Z" style="fill:white;"/>
        </g>
        <g transform="matrix(0.951878,-0.306478,0.221373,0.687555,-106.596,220.158)">
            <path d="M189.113,505.819C197.116,505.819 209.578,501.547 201.108,516.657C198.542,521.235 196.503,528 188.5,528C180.497,528 176.698,524.003 174.727,518.89C168.645,503.112 181.11,505.819 189.113,505.819Z" style="fill:rgb(0,171,151);stroke:rgb(37,33,37);stroke-width:11.11px;"/>
        </g>
        <g transform="matrix(0.951878,-0.306478,0.315924,0.981216,-157.519,62.105)">
            <path d="M190.07,516.226C199.743,516.135 201.774,515.399 203,517.5C205.942,522.543 196.503,528 188.5,528C180.497,528 171.611,522.811 174,517.5C174.678,515.993 187.325,516.252 190.07,516.226Z" style="fill:rgb(0,171,151);stroke:rgb(0,171,151);stroke-width:3.75px;"/>
        </g>
        <g transform="matrix(0.587917,-0.26954,0.175568,0.382946,-13.4189,370.565)">
            <path d="M187.648,511.249C195.651,511.249 203,511.705 203,517.5C203,523.295 196.503,528 188.5,528C180.497,528 174,523.295 174,517.5C174,511.705 179.646,511.249 187.648,511.249Z" style="fill:rgb(37,33,37);"/>
        </g>
        <g transform="matrix(0.632767,-0.774342,1.00442,0.820777,-421.965,206.874)">
            <path d="M191.381,516.644C197.976,516.535 201.79,520.212 202.575,522.481C204.811,528.944 192.423,525.464 188.5,528C181.249,532.688 168.871,525.11 175.132,520.349C180.484,516.279 183.38,516.777 191.381,516.644Z" style="fill:rgb(37,33,37);stroke:rgb(37,33,37);stroke-width:9.94px;"/>
        </g>
        <g transform="matrix(0.632767,-0.774342,0.559318,0.457057,-186.33,399.428)">
            <ellipse cx="188.5" cy="517.5" rx="14.5" ry="10.5" style="fill:rgb(0,171,151);stroke:rgb(0,171,151);stroke-width:4.37px;"/>
        </g>
        <g transform="matrix(0.430224,-0.526482,0.380285,0.310756,-54.1192,430.562)">
            <ellipse cx="188.5" cy="517.5" rx="14.5" ry="10.5" style="fill:rgb(37,33,37);"/>
        </g>
        <g transform="matrix(0.500136,0.865947,-0.981352,0.56679,697.161,28.5406)">
            <path d="M188.5,507C196.503,507 199.542,509.138 197.383,512.599C196.558,513.922 194.457,521.862 187.283,529.418C182.143,534.831 172.339,523.468 172.339,517.673C172.339,511.877 180.497,507 188.5,507Z" style="fill:rgb(37,33,37);stroke:rgb(37,33,37);stroke-width:9.07px;"/>
        </g>
        <g transform="matrix(0.500136,0.865947,-0.981352,0.56679,696.161,28.5406)">
            <path d="M188.5,507C196.503,507 199.542,509.138 197.249,514.569C196.651,515.984 194.808,520.003 187.634,527.559C182.494,532.972 174,523.295 174,517.5C174,511.705 180.497,507 188.5,507Z" style="fill:rgb(0,171,151);stroke:rgb(0,171,151);stroke-width:3.57px;"/>
        </g>
        <g transform="matrix(0.276607,0.478922,-0.525035,0.303239,500.978,240.222)">
            <path d="M188.5,507C196.503,507 199.708,509.196 197.415,514.627C196.818,516.041 194.108,519.62 186.934,527.175C181.795,532.588 174,523.295 174,517.5C174,511.705 180.497,507 188.5,507Z" style="fill:rgb(37,33,37);stroke:rgb(37,33,37);stroke-width:3.59px;"/>
        </g>
        <g transform="matrix(1.39073,-0.0836336,0.0796596,1.43349,-369.717,-140.299)">
            <g transform="matrix(-0.990382,-0.138359,-0.138359,0.990382,1117.14,23.1305)">
                <path d="M254.413,478.75C254.318,476.275 253.144,473.951 251.183,472.359C249.222,470.766 246.659,470.054 244.133,470.4C243.411,470.529 242.678,470.618 241.948,470.681C236.866,471.077 232.516,474.35 230.858,479.024C226.949,489.956 216.021,507.394 185.357,518.563C180.69,520.27 175.662,520.851 170.704,520.256C158.09,518.74 134.45,514.472 144.114,504.656C145.153,503.603 146.477,502.855 147.934,502.497C154.41,500.697 174.886,492.387 176.85,460.567C177.138,455.921 178.266,451.363 180.182,447.102C186.137,433.836 202.29,410.139 242,407C282.74,403.779 313.948,419.62 319.172,466.578C324.099,510.852 305,498 305,498L255,494C255,494 254.689,485.906 254.413,478.75Z" style="fill:rgb(37,33,37);stroke:rgb(37,33,37);stroke-width:5.58px;"/>
            </g>
            <g transform="matrix(-0.990382,-0.138359,-0.138359,0.990382,1117.14,23.1305)">
                <path d="M254.413,478.75C254.318,476.275 253.144,473.951 251.183,472.359C249.222,470.766 246.659,470.054 244.133,470.4C243.411,470.529 242.678,470.618 241.948,470.681C236.866,471.077 232.516,474.35 230.858,479.024C226.949,489.956 216.021,507.394 185.357,518.563C180.69,520.27 175.662,520.851 170.704,520.256C158.09,518.74 134.45,514.472 144.114,504.656C145.153,503.603 146.477,502.855 147.934,502.497C154.41,500.697 174.886,492.387 176.85,460.567C177.138,455.921 178.266,451.363 180.182,447.102C186.137,433.836 202.29,410.139 242,407C245.512,406.722 248.972,406.606 252.367,406.654C264.386,406.825 275.589,409.067 285.403,413.57C304.975,422.55 319.023,440.522 323,469C327.926,504.274 330,498 330,498L255,494C255,494 254.689,485.906 254.413,478.75Z" style="fill:rgb(0,171,151);"/>
            </g>
            <g transform="matrix(-0.990382,-0.138359,-0.138359,0.990382,1101.93,132.072)">
                <path d="M146.918,404.624C139.937,408.137 188.878,393.291 198.627,365.76C205.162,347.402 219.189,332.685 237.212,325.276C254.528,318.168 276.737,317.641 300.633,338.615C311.968,348.516 318.144,363.065 317.393,378.097C317.31,379.423 317.186,380.771 317,382.137L289.304,385.83L255,384C255,384 254.744,377.338 254.491,370.759C254.378,367.824 253.057,365.067 250.841,363.139C248.625,361.211 245.711,360.285 242.789,360.579C242.791,360.597 242.791,360.597 242.791,360.597C237.22,361.174 232.451,364.847 230.471,370.086C227.612,377.491 202.584,411.484 176.831,413.538L147.163,405.772C147.059,405.723 147.019,404.674 146.918,404.624Z" style="fill:white;"/>
            </g>
            <g transform="matrix(-0.900319,-0.435231,-0.314374,0.650313,1192.25,255.92)">
                <path d="M189.113,505.819C197.116,505.819 209.578,501.547 201.108,516.657C198.542,521.235 196.503,528 188.5,528C180.497,528 176.698,524.003 174.727,518.89C168.645,503.112 181.11,505.819 189.113,505.819Z" style="fill:rgb(0,171,151);stroke:rgb(37,33,37);stroke-width:7.96px;"/>
            </g>
            <g transform="matrix(-0.900319,-0.435231,-0.448646,0.928068,1264.56,106.432)">
                <path d="M190.07,516.226C199.743,516.135 201.774,515.399 203,517.5C205.942,522.543 196.503,528 188.5,528C180.497,528 171.611,522.811 174,517.5C174.678,515.993 187.325,516.252 190.07,516.226Z" style="fill:rgb(0,171,151);stroke:rgb(0,171,151);stroke-width:2.68px;"/>
            </g>
            <g transform="matrix(-0.544969,-0.348292,-0.226864,0.354972,1079.16,391.988)">
                <path d="M187.648,511.249C195.651,511.249 203,511.705 203,517.5C203,523.295 196.503,528 188.5,528C180.497,528 174,523.295 174,517.5C174,511.705 179.646,511.249 187.648,511.249Z" style="fill:rgb(37,33,37);"/>
            </g>
            <g transform="matrix(-0.519544,-0.854444,-1.10832,0.673913,1506.43,286.398)">
                <path d="M191.381,516.644C197.976,516.535 201.79,520.212 202.575,522.481C204.811,528.944 192.423,525.464 188.5,528C181.249,532.688 168.871,525.11 175.132,520.349C180.484,516.279 183.38,516.777 191.381,516.644Z" style="fill:rgb(37,33,37);stroke:rgb(37,33,37);stroke-width:7.13px;"/>
            </g>
            <g transform="matrix(-0.519544,-0.854444,-0.617177,0.375274,1246.42,444.497)">
                <ellipse cx="188.5" cy="517.5" rx="14.5" ry="10.5" style="fill:rgb(0,171,151);stroke:rgb(0,171,151);stroke-width:3.13px;"/>
            </g>
            <g transform="matrix(-0.353242,-0.580943,-0.419623,0.255152,1111.17,457.039)">
                <ellipse cx="188.5" cy="517.5" rx="14.5" ry="10.5" style="fill:rgb(37,33,37);"/>
            </g>
            <g transform="matrix(-0.615138,0.78842,0.893493,0.697118,422.74,-45.062)">
                <path d="M188.5,507C196.503,507 199.542,509.138 197.383,512.599C196.558,513.922 194.457,521.862 187.283,529.418C182.143,534.831 172.339,523.468 172.339,517.673C172.339,511.877 180.497,507 188.5,507Z" style="fill:rgb(37,33,37);stroke:rgb(37,33,37);stroke-width:6.33px;"/>
            </g>
            <g transform="matrix(-0.615138,0.78842,0.893493,0.697118,423.731,-44.9236)">
                <path d="M188.5,507C196.503,507 199.542,509.138 197.249,514.569C196.651,515.984 194.808,520.003 187.634,527.559C182.494,532.972 174,523.295 174,517.5C174,511.705 180.497,507 188.5,507Z" style="fill:rgb(0,171,151);stroke:rgb(0,171,151);stroke-width:2.49px;"/>
            </g>
            <g transform="matrix(-0.340209,0.436045,0.478029,0.372966,587.748,191.727)">
                <path d="M188.5,507C196.503,507 199.708,509.196 197.415,514.627C196.818,516.041 194.108,519.62 186.934,527.175C181.795,532.588 174,523.295 174,517.5C174,511.705 180.497,507 188.5,507Z" style="fill:rgb(37,33,37);stroke:rgb(37,33,37);stroke-width:2.5px;"/>
            </g>
            <g transform="matrix(-0.990382,-0.138359,-0.138359,0.990382,1117.14,23.1305)">
                <path d="M141.851,515.491C141.851,515.491 187.774,510.345 199.199,474.048C202.559,463.303 209.122,453.774 218.063,446.66C236.572,432.033 268.523,417.909 303.802,451.515C309.931,457.368 314.179,464.819 316.026,472.958C317.247,478.404 317.968,485.042 317,492.137" style="fill:none;stroke:rgb(37,33,37);stroke-width:2.83px;"/>
            </g>
            <g transform="matrix(-0.990382,-0.138359,-0.138359,0.990382,1117.14,23.1305)">
                <path d="M247,473.167C247,473.167 259.212,463.936 260,442" style="fill:none;stroke:rgb(37,33,37);stroke-width:2.31px;"/>
            </g>
            <g transform="matrix(-0.71475,0.69938,0.69938,0.71475,658.331,-48.1856)">
                <path d="M247,473.167C247,473.167 242.063,459.103 235.925,457.583" style="fill:none;stroke:rgb(37,33,37);stroke-width:2.28px;"/>
            </g>
            <g transform="matrix(-0.990382,-0.138359,-0.138359,0.990382,1117.14,23.1305)">
                <path d="M240.363,478.127C240.363,471.12 235.739,464.106 230.863,459.231" style="fill:none;stroke:rgb(37,33,37);stroke-width:2.31px;"/>
            </g>
            <g transform="matrix(-1.19294,-0.149371,-0.155604,0.989442,1188.06,22.9089)">
                <path d="M261.716,493.638L324.119,497.848" style="fill:none;stroke:rgb(37,33,37);stroke-width:2.69px;"/>
            </g>
        </g>
        <g transform="matrix(1.39278,0.0243175,-0.0250672,1.43572,-234.957,-225.984)">
            <path d="M624,415C624,415 556.275,342.542 554,324C551.725,305.458 525.775,307.042 547,288C567.911,269.24 539.636,218.443 679.58,176.867C684.751,175.334 690.255,175.198 695.5,176.473C716.624,181.589 759.028,203.98 671,301C671,301 710.275,306.41 670,352C670,352 664.275,367.691 682,406.641C699.725,445.59 715,474.431 715,474.431L616,483L624,415Z" style="fill:rgb(0,171,151);stroke:rgb(37,33,37);stroke-width:4.29px;"/>
        </g>
        <path d="M141.851,515.491C141.851,515.491 186.321,510.508 198.626,475.761C205.045,457.733 218.695,443.2 236.287,435.666C246.658,431.214 258.849,429.09 272.141,432.585C281.08,434.936 290.517,439.828 300.237,448.269C311.802,458.174 318.129,472.876 317.373,488.084C317.311,489.415 317.187,490.767 317,492.137" style="fill:none;stroke:rgb(37,33,37);stroke-width:3.99px;"/>
        <path d="M247,473.167C247,473.167 259.212,463.936 260,442" style="fill:none;stroke:rgb(37,33,37);stroke-width:3.27px;"/>
        <g transform="matrix(0.61111,0.791546,-0.791546,0.61111,464.268,-7.14909)">
            <path d="M247,473.167C247,473.167 242.063,459.103 235.925,457.583" style="fill:none;stroke:rgb(37,33,37);stroke-width:3.27px;"/>
        </g>
        <path d="M240.363,478.127C240.363,471.12 235.739,464.106 230.863,459.231" style="fill:none;stroke:rgb(37,33,37);stroke-width:3.27px;"/>
        <g transform="matrix(1.39278,0.0243175,-0.0250672,1.43572,-234.957,-225.984)">
            <path d="M624,415C624,415 556.275,342.542 554,324C551.725,305.458 525.775,307.042 547,288C567.911,269.24 539.636,218.443 679.58,176.867C684.751,175.334 690.255,175.198 695.5,176.473C716.624,181.589 759.028,203.98 671,301C671,301 710.275,306.41 670,352C670,352 664.275,367.691 682,406.641C699.725,445.59 715,474.431 715,474.431L616,483L624,415Z" style="fill:rgb(0,171,151);"/>
        </g>
        <g transform="matrix(1.39278,0.0243175,-0.0213071,1.22036,-241.671,-160.612)">
            <circle cx="569" cy="354" r="20" style="fill:white;stroke:rgb(37,33,37);stroke-width:2.49px;"/>
        </g>
        <g transform="matrix(1.49724,0.0261413,-0.0275739,1.57929,-219.689,-318.924)">
            <circle cx="569" cy="354" r="20" style="fill:white;stroke:rgb(37,33,37);stroke-width:2.24px;"/>
        </g>
        <g transform="matrix(2.03257,0.0354881,-0.0188004,1.07679,-538.825,-151.224)">
            <ellipse cx="534.354" cy="375" rx="4.354" ry="6" style="fill:rgb(37,33,37);"/>
        </g>
        <g transform="matrix(1.5218,0.808909,-0.479602,0.957288,-20.5909,-522.733)">
            <ellipse cx="534.354" cy="375" rx="4.354" ry="6" style="fill:rgb(37,33,37);"/>
        </g>
        <g transform="matrix(1.39226,-0.496167,0.442285,1.32229,-434.675,140.958)">
            <path d="M630,369C647.109,369 671.13,388.063 659.619,400.601C655.398,405.197 647.135,393.975 637.783,394.862C620.738,396.477 617.15,420.798 606.18,405.083C599.425,395.405 606.051,380.71 616.752,373.421C620.759,370.691 625.338,369 630,369Z" style="fill:rgb(37,33,37);"/>
            <clipPath id="_clip1">
                <path d="M630,369C647.109,369 671.13,388.063 659.619,400.601C655.398,405.197 647.135,393.975 637.783,394.862C620.738,396.477 617.15,420.798 606.18,405.083C599.425,395.405 606.051,380.71 616.752,373.421C620.759,370.691 625.338,369 630,369Z"/>
            </clipPath>
            <g clip-path="url(#_clip1)">
                <g transform="matrix(0.637985,-0.757725,0.69839,0.692188,-49.3086,577.921)">
                    <path d="M607.308,379C611.358,379 614.646,381.464 614.646,384.5C614.646,387.536 611.433,392.827 607.383,392.827C603.333,392.827 599.969,387.536 599.969,384.5C599.969,381.464 603.257,379 607.308,379Z" style="fill:white;"/>
                </g>
                <g transform="matrix(0.906248,-0.294119,0.271088,0.983243,-26.4835,169.985)">
                    <path d="M607.308,379C611.358,379 614.646,381.464 614.646,384.5C614.646,387.536 611.433,392.827 607.383,392.827C603.333,392.827 599.969,387.536 599.969,384.5C599.969,381.464 603.257,379 607.308,379Z" style="fill:white;"/>
                </g>
                <g transform="matrix(0.693628,0.697803,-0.64316,0.752558,479.078,-335.763)">
                    <path d="M607.308,379C611.358,379 614.646,381.464 614.646,384.5C614.646,387.536 611.433,392.827 607.383,392.827C603.333,392.827 599.969,387.536 599.969,384.5C599.969,381.464 603.257,379 607.308,379Z" style="fill:white;"/>
                </g>
                <g transform="matrix(-0.857598,0.433033,-0.399124,-0.930459,1301.67,498.382)">
                    <path d="M607.308,379C611.358,379 614.646,381.464 614.646,384.5C614.646,387.536 611.433,392.827 607.383,392.827C603.333,392.827 599.969,387.536 599.969,384.5C599.969,381.464 603.257,379 607.308,379Z" style="fill:white;"/>
                </g>
                <g transform="matrix(-0.94578,0.018004,-0.0165942,-1.02613,1220.22,783.612)">
                    <path d="M607.308,379C611.358,379 614.646,381.464 614.646,384.5C614.646,387.536 611.433,392.827 607.383,392.827C603.333,392.827 599.969,387.536 599.969,384.5C599.969,381.464 603.257,379 607.308,379Z" style="fill:white;"/>
                </g>
            </g>
            <path d="M630,369C647.109,369 671.13,388.063 659.619,400.601C655.398,405.197 647.135,393.975 637.783,394.862C620.738,396.477 617.15,420.798 606.18,405.083C599.425,395.405 606.051,380.71 616.752,373.421C620.759,370.691 625.338,369 630,369Z" style="fill:none;stroke:rgb(0,171,151);stroke-width:2.99px;"/>
        </g>
    </g>
    <path d="M241,491L298,495L370,501L506,493L533,501L576,495L602,484L731,475.431" style="fill:none;stroke:rgb(0,171,151);stroke-width:4.25px;stroke-linecap:square;stroke-linejoin:miter;"/>
    <g transform="matrix(1.20214,0.0171207,0.0172093,1.00146,-70.2031,-10.0313)">
        <path d="M251,492L326.63,496.807" style="fill:none;stroke:rgb(37,33,37);stroke-width:3.78px;"/>
    </g>
    <g id="Layer5">
        <path d="M734,475.431L757,475.431L823,415L874,342L896,245L994,195L1079,452L939,622" style="fill:rgb(37,33,37);stroke:rgb(0,171,151);stroke-width:4.17px;stroke-linecap:square;stroke-linejoin:miter;"/>
        <path d="M734,475.431L757,475.431L823,415L874,342L896,245L994,195L1079,452L939,622" style="fill:rgb(32,29,32);stroke:rgb(0,171,151);stroke-width:4.17px;stroke-linecap:square;stroke-linejoin:miter;"/>
        <g transform="matrix(-0.443244,0,0,0.443244,416.331,168.648)">
            <g transform="matrix(1,0,0,1,237,227.957)">
                <path d="M221.891,132.941C205.459,91.333 158.409,70.923 116.801,87.355C77.648,102.817 57.276,145.387 68.697,185.026C99.417,171.742 126.538,157.076 146.89,143.067C146.684,142.663 146.493,142.248 146.323,141.818C143.473,134.603 147.012,126.443 154.227,123.594C159.26,121.607 164.746,122.734 168.575,126.041C176.024,119.143 181.236,112.662 183.737,106.895C185.387,103.089 185.688,99.801 184.631,97.123L189.281,95.286C190.844,99.243 190.521,103.818 188.324,108.885C185.585,115.2 179.839,122.296 171.641,129.819C171.94,130.357 172.219,130.911 172.452,131.499C175.302,138.715 171.763,146.874 164.548,149.724C159.35,151.777 153.673,150.501 149.835,146.938C128.992,161.352 101.398,176.329 70.245,189.795C70.559,190.679 70.867,191.565 71.215,192.444C87.647,234.052 134.696,254.462 176.305,238.03C217.914,221.598 238.322,174.55 221.891,132.941Z" style="fill:rgb(0,168,149);fill-rule:nonzero;"/>
            </g>
            <g transform="matrix(0.863282,0.504723,-0.504723,0.863282,233.85,80.1987)">
                <path d="M171.641,129.82C179.838,122.297 185.584,115.201 188.324,108.886C190.521,103.82 190.844,99.244 189.281,95.287L184.631,97.124C185.689,99.802 185.388,103.09 183.737,106.896C181.236,112.662 176.024,119.144 168.575,126.042C169.787,127.09 170.828,128.361 171.641,129.82Z" style="fill:rgb(32,29,32);fill-rule:nonzero;"/>
            </g>
            <g transform="matrix(1,0,0,1,237,227.957)">
                <path d="M181.246,252.191L158.383,262.308L155.152,255.006C152.456,256.3 149.71,257.588 146.917,258.866L150.726,267.469L127.863,277.586L123.955,268.755C118.92,270.793 113.779,272.794 108.547,274.748C107.247,277.44 105.813,280.115 105.098,282.591C103.95,285.36 102.854,288.092 102.038,290.61C100.408,295.646 99.898,299.825 102.325,301.75C109.384,307.346 130.228,282.848 139.781,284.251C149.334,285.653 162.256,315.111 170.625,311.781C179.26,308.345 168.418,277.878 174.189,270.595C179.787,263.537 196.244,283.001 197.647,273.448C198.746,265.968 195.185,245.046 185.14,239.148C182.641,240.616 180.07,242.084 177.421,243.548L181.246,252.191Z" style="fill:rgb(0,168,149);fill-rule:nonzero;stroke:rgb(37,33,37);stroke-width:8.6px;stroke-linecap:butt;stroke-miterlimit:2;"/>
            </g>
            <g transform="matrix(1,0,0,1,237,227.957)">
                <path d="M181.246,252.191L158.383,262.308L155.152,255.006C152.456,256.3 149.71,257.588 146.917,258.866L150.726,267.469L127.863,277.586L123.955,268.755C118.92,270.793 113.779,272.794 108.547,274.748C107.247,277.44 105.813,280.115 105.098,282.591C103.95,285.36 102.854,288.092 102.038,290.61C100.408,295.646 99.898,299.825 102.325,301.75C109.384,307.346 130.228,282.848 139.781,284.251C149.334,285.653 162.256,315.111 170.625,311.781C179.26,308.345 168.418,277.878 174.189,270.595C179.787,263.537 196.244,283.001 197.647,273.448C198.746,265.968 195.185,245.046 185.14,239.148C182.641,240.616 180.07,242.084 177.421,243.548L181.246,252.191Z" style="fill:rgb(0,168,149);fill-rule:nonzero;"/>
            </g>
            <g transform="matrix(1,0,0,1,237,227.957)">
                <path d="M119.768,259.299L142.629,249.182L144.914,254.342C147.709,253.067 150.457,251.783 153.154,250.494L150.289,244.019L173.15,233.903L175.433,239.06C177.293,238.031 179.119,237.002 180.902,235.974C180.298,235.332 179.829,234.679 179.561,234.006C176.126,225.371 195.271,199.308 187.99,193.535C180.931,187.939 160.086,212.437 150.534,211.035C140.981,209.633 128.059,180.175 119.69,183.505C115.373,185.223 115.924,193.698 116.836,202.654C117.139,205.639 117.482,208.678 117.697,211.539C119,235 80,235 80,252C79,262 103,249 110,262C111.327,263.99 111.439,266.203 110.933,268.51C114.653,267.092 118.324,265.655 121.936,264.198L119.768,259.299Z" style="fill:rgb(0,168,149);fill-rule:nonzero;"/>
            </g>
            <g transform="matrix(1,0,0,1,237,227.957)">
                <path d="M180.902,235.975C179.119,237.003 177.294,238.032 175.433,239.061L177.419,243.549C180.067,242.084 182.639,240.616 185.138,239.149C183.387,238.119 181.932,237.066 180.902,235.975Z" style="fill:rgb(32,29,32);fill-rule:nonzero;"/>
            </g>
            <g transform="matrix(1,0,0,1,237,227.957)">
                <path d="M144.914,254.342L146.916,258.867C149.709,257.589 152.455,256.301 155.151,255.007L153.154,250.494C150.457,251.783 147.709,253.066 144.914,254.342Z" style="fill:rgb(32,29,32);fill-rule:nonzero;"/>
            </g>
            <g transform="matrix(-0.952386,-0.304894,0.304894,-0.952386,447,667.496)">
                <path d="M115.896,207.033C113,201 112,194 117,191C129,183 140.649,193.716 153.649,193.716C165.649,194.716 167,201 162,210C153,225 129,226 119.313,212.424C117.945,210.775 116.788,208.965 115.896,207.033Z" style="fill:rgb(32,29,32);fill-rule:nonzero;"/>
            </g>
            <g transform="matrix(1,0,0,1,238.275,236.214)">
                <path d="M129.705,216.943C126,210 131,203 137,200C144,197 153,197 159,202C163,206 162,212 160,215C154,224 140,228 131.295,220.952C130.643,219.825 130.117,218.479 129.705,216.943Z" style="fill:rgb(0,168,149);fill-rule:nonzero;"/>
            </g>
            <g transform="matrix(-0.809453,-0.587185,0.587185,-0.809453,372.081,540.038)">
                <path d="M122.408,135.142C126.409,135.142 129.658,138.391 129.658,142.392C129.658,146.393 129.001,145.697 124.999,145.697C120.998,145.697 115.158,146.393 115.158,142.392C115.158,138.391 118.407,135.142 122.408,135.142Z" style="fill:rgb(32,29,32);"/>
            </g>
            <g transform="matrix(0.748396,0.663252,-0.663252,0.748396,-393.255,-304.75)">
                <path d="M205.607,13.504C205.48,13.446 205.353,13.389 205.226,13.332C205.316,13.43 205.407,13.527 205.496,13.626C205.533,13.584 205.571,13.545 205.607,13.504Z" style="fill:rgb(32,29,32);fill-rule:nonzero;"/>
            </g>
            <g transform="matrix(0.748396,0.663252,-0.663252,0.748396,-393.255,-304.75)">
                <path d="M242.186,107.179C234.692,115.593 194.758,124.294 190.401,124.718C166.954,127.002 138.116,131.31 115.06,126.708C106.401,124.98 64.498,116.825 58.434,106.333C50.795,119.161 105.068,129.714 115.06,131.708C138.116,136.31 166.954,132.002 190.401,129.718C195.639,129.208 252.311,116.734 242.186,107.179Z" style="fill:rgb(32,29,32);fill-rule:nonzero;"/>
            </g>
            <g transform="matrix(0.748396,0.663252,-0.663252,0.748396,-393.255,-304.75)">
                <path d="M190.596,53.986C190.349,52.478 190.471,51.361 190.856,50.552C172.141,47.613 156.385,35.691 148.154,19.366C135.725,25.663 124.383,34.319 115.8,43.593C113.861,45.693 112.231,48.033 110.804,50.521C146.345,58.062 176.803,59.609 190.596,53.986Z" style="fill:white;fill-rule:nonzero;"/>
            </g>
            <g transform="matrix(0.748396,0.663252,-0.663252,0.748396,-393.255,-304.75)">
                <path d="M115.06,126.708C138.116,131.31 166.954,127.002 190.401,124.718C194.758,124.294 234.692,115.593 242.186,107.179C239.903,105.025 234.237,103.018 223.806,101.331C217.022,100.251 212.23,98.14 208.702,95.289C185.93,101.584 143.244,98.391 94.36,87.023C91.373,90.76 87.536,93.619 82.215,95.033C67.714,98.887 60.596,102.701 58.433,106.334C64.498,116.825 106.4,124.98 115.06,126.708Z" style="fill:white;fill-rule:nonzero;"/>
            </g>
            <g transform="matrix(0.748396,0.663252,-0.663252,0.748396,-393.255,-304.75)">
                <path d="M204.793,91.197C198.428,82.681 197.895,70.391 192.211,58.709C176.981,64.668 145.435,63.136 108.439,55.146C104.248,64.283 101.859,74.609 97.321,82.601C143.02,93.13 182.754,96.39 204.793,91.197Z" style="fill:white;fill-rule:nonzero;"/>
            </g>
            <g transform="matrix(0.748396,0.663252,-0.663252,0.748396,-393.255,-304.75)">
                <path d="M206.121,49.771C225.5,75.5 221.5,42.5 221.5,42.5C221.5,42.5 216.908,28.62 208.729,17.594C202.881,24.569 198.612,33.808 196.704,43.902C200.168,44.71 204.17,47.18 206.121,49.771Z" style="fill:white;fill-rule:nonzero;"/>
            </g>
            <g transform="matrix(0.748396,0.663252,-0.663252,0.748396,-393.255,-304.75)">
                <path d="M187.546,9.312C176.002,9.063 163.98,12.115 152.664,17.212C160.094,31.877 174.181,42.628 190.941,45.491C191.087,45.194 191.265,44.935 191.476,44.714C193.445,32.576 198.402,21.713 205.496,13.626C205.407,13.527 205.316,13.43 205.226,13.332C199.168,10.601 192.959,9.111 187.546,9.312Z" style="fill:white;fill-rule:nonzero;"/>
            </g>
            <g transform="matrix(0.748396,0.663252,-0.663252,0.748396,-393.255,-304.75)">
                <path d="M204.793,91.197C182.754,96.39 143.02,93.13 97.32,82.602C96.427,84.175 95.451,85.659 94.36,87.023C143.244,98.391 185.929,101.585 208.702,95.289C207.179,94.058 205.902,92.682 204.793,91.197Z" style="fill:rgb(32,29,32);fill-rule:nonzero;"/>
            </g>
            <g transform="matrix(0.748396,0.663252,-0.663252,0.748396,-393.255,-304.75)">
                <path d="M192.211,58.709C191.99,58.253 191.768,57.797 191.529,57.344C191.055,56.059 190.753,54.946 190.595,53.987C176.802,59.61 146.344,58.063 110.802,50.523C109.947,52.017 109.165,53.564 108.438,55.148C145.435,63.136 176.98,64.668 192.211,58.709Z" style="fill:rgb(32,29,32);fill-rule:nonzero;"/>
            </g>
            <g transform="matrix(0.748396,0.663252,-0.663252,0.748396,-393.255,-304.75)">
                <path d="M190.922,50.404C190.897,50.45 190.879,50.505 190.856,50.553C190.893,50.559 190.93,50.567 190.967,50.573C190.951,50.516 190.936,50.459 190.922,50.404Z" style="fill:rgb(32,29,32);fill-rule:nonzero;"/>
            </g>
            <g transform="matrix(0.748396,0.663252,-0.663252,0.748396,-393.255,-304.75)">
                <path d="M190.855,50.553C190.878,50.505 190.896,50.45 190.921,50.404C190.337,48.167 190.409,46.569 190.941,45.49C174.18,42.627 160.093,31.876 152.664,17.211C151.147,17.895 149.643,18.613 148.153,19.367C156.385,35.692 172.141,47.613 190.855,50.553Z" style="fill:rgb(32,29,32);fill-rule:nonzero;"/>
            </g>
            <g transform="matrix(0.748396,0.663252,-0.663252,0.748396,-393.255,-304.75)">
                <path d="M196.703,43.901C198.611,33.807 202.881,24.568 208.728,17.593C207.706,16.215 206.628,14.881 205.496,13.625C198.402,21.711 193.445,32.575 191.476,44.713C192.59,43.546 194.538,43.396 196.703,43.901Z" style="fill:rgb(32,29,32);fill-rule:nonzero;"/>
            </g>
            <g transform="matrix(-0.522281,0.852774,-0.852774,-0.522281,633.522,395.2)">
                <path d="M217.5,302.5C204.084,285.252 198.828,235.336 222.5,223.5C245.414,213.68 272.563,230.26 256.5,255.5" style="fill:none;fill-rule:nonzero;"/>
            </g>
            <g transform="matrix(-0.522281,0.852774,-0.852774,-0.522281,633.522,395.2)">
                <path d="M222.053,298.639C216.194,290.877 213.944,280.438 212.69,271.001C211.227,259.98 211.811,248.113 216.568,237.924C221.071,228.277 232.319,224.872 242.261,227.223C246.936,228.328 251.545,230.84 253.944,235.141C257.027,240.668 254.641,247.108 251.612,252.077C247.62,258.622 257.376,265.509 261.389,258.925C265.746,251.779 268.53,243.773 266.67,235.364C264.994,227.789 259.392,221.866 252.631,218.426C238.744,211.363 220.602,214.193 210.277,225.889C200.684,236.758 199.619,253.543 200.384,267.262C201.134,280.715 204.709,295.451 212.947,306.362C217.588,312.507 226.681,304.769 222.053,298.639Z" style="fill:rgb(32,29,32);fill-rule:nonzero;"/>
            </g>
            <g transform="matrix(-0.522281,0.852774,-0.852774,-0.522281,633.522,395.2)">
                <path d="M214.277,225.889C213.764,226.47 213.289,227.076 212.824,227.689C214.967,228.204 216.986,228.882 218.845,229.71C219.645,230.066 220.424,230.441 221.159,230.854C222.244,231.461 223.224,232.117 224.109,232.809C229.617,227.141 238.346,225.352 246.26,227.223C247.669,227.556 249.064,228.035 250.402,228.633C250.937,226.651 251.694,224.79 252.641,223.1C253.663,221.276 254.907,219.651 256.321,218.277C242.475,211.41 224.525,214.278 214.277,225.889Z" style="fill:white;fill-rule:nonzero;"/>
            </g>
            <g transform="matrix(-0.522281,0.852774,-0.852774,-0.522281,633.522,395.2)">
                <path d="M221.64,235.963C220.918,235.397 220.116,234.852 219.205,234.343C218.361,233.871 217.449,233.453 216.504,233.063C214.653,232.301 212.627,231.701 210.471,231.274C204.423,241.836 203.737,255.642 204.385,267.262C204.497,269.281 204.682,271.329 204.928,273.389C207.103,273.299 209.102,273.158 210.937,272.979C213.158,272.762 215.135,272.494 216.856,272.192C216.799,271.795 216.743,271.396 216.69,271.002C215.227,259.981 215.811,248.114 220.568,237.925C220.889,237.235 221.253,236.588 221.64,235.963Z" style="fill:white;fill-rule:nonzero;"/>
            </g>
            <g transform="matrix(-0.522281,0.852774,-0.852774,-0.522281,633.522,395.2)">
                <path d="M270.67,235.363C269.276,229.064 265.166,223.914 259.934,220.379C258.467,221.596 257.192,223.156 256.169,224.971C255.199,226.693 254.462,228.639 254.013,230.742C255.592,231.93 256.96,233.378 257.944,235.141C259.847,238.553 259.663,242.313 258.533,245.861C259.942,246.491 261.835,247.142 264.216,247.753C265.898,248.184 267.824,248.593 269.986,248.958C271.299,244.603 271.705,240.046 270.67,235.363Z" style="fill:white;fill-rule:nonzero;"/>
            </g>
            <g transform="matrix(-0.522281,0.852774,-0.852774,-0.522281,633.522,395.2)">
                <path d="M217.473,276.125C215.531,276.459 213.52,276.714 211.57,276.905C209.399,277.118 207.306,277.256 205.481,277.343C206.827,285.578 209.353,293.814 213.434,300.977C214.839,299.657 216.463,298.456 218.264,297.401C219.908,296.437 221.702,295.595 223.616,294.893C220.396,289.214 218.604,282.596 217.473,276.125Z" style="fill:white;fill-rule:nonzero;"/>
            </g>
            <g transform="matrix(-0.522281,0.852774,-0.852774,-0.522281,633.522,395.2)">
                <path d="M262.716,251.509C260.592,250.951 258.657,250.299 257.013,249.544C256.575,250.419 256.104,251.269 255.612,252.076C251.62,258.621 261.376,265.508 265.389,258.924C266.603,256.933 267.688,254.873 268.591,252.758C266.537,252.406 264.558,251.992 262.716,251.509C262.095,252.813 262.095,252.813 262.716,251.509Z" style="fill:white;fill-rule:nonzero;"/>
            </g>
            <g transform="matrix(-0.522281,0.852774,-0.852774,-0.522281,633.522,395.2)">
                <path d="M221.5,302.5C221.08,301.96 220.668,301.389 220.266,300.787C218.449,301.841 216.861,303.058 215.551,304.404C216.002,305.068 216.465,305.722 216.947,306.361C221.588,312.507 230.68,304.768 226.052,298.638C225.973,298.533 225.902,298.423 225.823,298.317C223.805,298.983 221.938,299.814 220.264,300.787C220.668,301.389 221.08,301.96 221.5,302.5Z" style="fill:white;fill-rule:nonzero;"/>
            </g>
        </g>
    </g>
</svg>
