<?xml version="1.0" encoding="utf-8"?>
<!-- Generator: Adobe Illustrator 12.0.0, SVG Export Plug-In . SVG Version: 6.00 Build 51448)  -->
<!DOCTYPE svg PUBLIC "-//W3C//DTD SVG 1.1//EN" "http://www.w3.org/Graphics/SVG/1.1/DTD/svg11.dtd" [
	<!ENTITY ns_svg "http://www.w3.org/2000/svg">
	<!ENTITY ns_xlink "http://www.w3.org/1999/xlink">
]>
<svg  version="1.1" id="Layer_1" xmlns="&ns_svg;" xmlns:xlink="&ns_xlink;" width="310.631" height="92.311"
	 viewBox="0 0 310.631 92.311" overflow="visible" enable-background="new 0 0 310.631 92.311" xml:space="preserve">
<g>
	<path fill="#FFFFFF" d="M35.248,7.175C32.229,2.857,27.232,0,21.627,0H1.847C0.793,0,0,0.79,0,1.846v88.62
		c0,1.052,0.793,1.845,1.847,1.845h11.736c1.056,0,1.848-0.793,1.848-1.845v-35.74h6.196c4.305,0,8.244-1.696,11.213-4.432V15.692
		C32.84,12.587,33.732,9.675,35.248,7.175z M22.816,37.45c0,1.716-1.451,3.167-3.167,3.167h-4.219V14.11h4.219
		c1.716,0,3.167,1.45,3.167,3.164V37.45z"/>
	<path fill="#FFFFFF" d="M98.697,76.882H82.343V1.846C82.343,0.79,81.555,0,80.498,0H68.762c-1.055,0-1.846,0.79-1.846,1.846v2.932
		c2.578,2.933,4.164,6.753,4.164,10.915v60.926c0,4.16-1.586,7.981-4.164,10.914v2.934c0,1.052,0.791,1.845,1.846,1.845h11.736
		h0.133c0.131,0,0.131,0,0.262,0h17.805c1.055,0,1.845-0.793,1.845-1.845V78.729C100.542,77.672,99.752,76.882,98.697,76.882z"/>
	<path fill="#FFFFFF" d="M140.818,0h-13.978c-1.055,0-1.978,0.79-2.111,1.846l-5.274,33.232h-0.527l-5.275-33.232
		C113.521,0.79,112.601,0,111.547,0H97.564c-1.055,0-1.582,0.923-1.318,1.846l15.166,54.596v34.024c0,1.052,0.791,1.845,1.846,1.845
		h11.867c1.057,0,1.848-0.793,1.848-1.845V56.441l15.165-54.596C142.401,0.923,141.875,0,140.818,0z"/>
	<path fill="#FFFFFF" d="M179.316,15.692c0-2.601,0.633-5.062,1.721-7.267C178.158,3.417,172.758,0,166.628,0h-19.782
		c-1.055,0-1.845,0.79-1.845,1.846v88.62c0,1.052,0.79,1.845,1.845,1.845h19.782c6.13,0,11.53-3.419,14.409-8.427
		c-1.088-2.204-1.721-4.667-1.721-7.266V15.692z M167.818,75.034c0,1.717-1.455,3.166-3.17,3.166h-4.221V14.11h4.221
		c1.715,0,3.17,1.45,3.17,3.164V75.034z"/>
	<path fill="#FFFFFF" d="M243.151,52.88c5.405-2.768,9.099-8.307,9.099-14.77V16.616C252.25,7.515,244.734,0,235.635,0h-19.782
		c-1.054,0-1.845,0.79-1.845,1.846v3.667c2.213,2.824,3.553,6.357,3.553,10.18v60.926c0,3.821-1.34,7.355-3.553,10.18v3.668
		c0,1.052,0.791,1.845,1.845,1.845h11.735c0.793,0,1.584-0.528,1.85-1.319V58.155l9.625,32.311c0.262,1.052,1.45,1.845,2.506,1.845
		h11.999c1.056,0,1.585-0.793,1.32-1.845L243.151,52.88z M236.82,37.45c0,1.716-1.451,3.167-3.166,3.167h-4.217V14.11h4.217
		c1.715,0,3.166,1.45,3.166,3.164V37.45z"/>
	<path fill="#FFFFFF" d="M308.784,0h-11.208c-1.056,0-1.977,0.923-2.242,1.846l-10.42,47.211L274.498,1.846
		C274.234,0.923,273.309,0,272.256,0h-11.209c-1.057,0-1.846,0.79-1.846,1.846v88.62c0,1.052,0.789,1.845,1.846,1.845h12.66
		c1.055,0,1.844-0.793,1.844-1.845V48.792l8.705,34.025c0.266,0.921,1.053,0.921,1.32,0l8.702-34.025v41.674
		c0,1.052,0.79,1.845,1.847,1.845h12.659c1.056,0,1.847-0.793,1.847-1.845V1.846C310.631,0.79,309.84,0,308.784,0z"/>
	<path fill="#FFFFFF" d="M198.165,14.905c-3.193,0-4.79,1.917-4.79,5.744v51.125c0,3.948,1.597,5.922,4.79,5.922
		c3.256,0,4.884-1.974,4.884-5.922V20.649C203.049,16.822,201.421,14.905,198.165,14.905z"/>
	<path fill="#FFFFFF" d="M51.686,14.905c-3.193,0-4.791,1.917-4.791,5.744v51.125c0,3.948,1.598,5.922,4.791,5.922
		c3.254,0,4.885-1.974,4.885-5.922V20.649C56.57,16.822,54.939,14.905,51.686,14.905z"/>
</g>
</svg>
